<svg id="Group_4468" data-name="Group 4468" xmlns="http://www.w3.org/2000/svg" width="22" height="22" viewBox="0 0 22 22">
  <path id="Rectangle_2776" data-name="Rectangle 2776" d="M1,0H9a1,1,0,0,1,1,1v9a0,0,0,0,1,0,0H1A1,1,0,0,1,0,9V1A1,1,0,0,1,1,0Z" fill="#c9e0ce"/>
  <path id="Rectangle_2779" data-name="Rectangle 2779" d="M1,0h9a1,1,0,0,1,1,1v9a0,0,0,0,1,0,0H1A1,1,0,0,1,0,9V1A1,1,0,0,1,1,0Z" transform="translate(11 12)" fill="#c9e0ce"/>
  <rect id="Rectangle_2777" data-name="Rectangle 2777" width="10" height="10" rx="1" transform="translate(0 12)" fill="#77b585"/>
  <rect id="Rectangle_2778" data-name="Rectangle 2778" width="11" height="10" rx="1" transform="translate(11)" fill="#77b585"/>
</svg>
